<svg xmlns="http://www.w3.org/2000/svg" width="439" height="98" viewBox="0 0 439 98">
  <path fill="#FF4747" fill-rule="evenodd" d="M374.489887,31.0208761 L366.580409,31.0208761 L366.580409,76.8804881 L374.489887,76.8804881 L374.489887,50.2310701 C374.489887,42.0378313 381.648275,35.9172194 390.215961,37.5188612 L390.215961,29.985294 C383.15411,29.0440552 377.503752,32.2451448 374.489887,38.9303537 L374.489887,31.0208761 Z M415.170125,30.0796373 C401.893319,30.0796373 391.534573,40.1553537 391.534573,53.9024134 C391.534573,67.6523985 401.893319,77.7281149 415.170125,77.7281149 C428.449125,77.7281149 438.805678,67.6523985 438.805678,53.9024134 C438.805678,40.1553537 428.449125,30.0796373 415.170125,30.0796373 L415.170125,30.0796373 Z M415.170125,70.5719209 C406.41229,70.5719209 399.444051,63.6036821 399.444051,53.9024134 C399.444051,44.2040701 406.41229,37.2358313 415.170125,37.2358313 C423.927961,37.2358313 430.8962,44.2040701 430.8962,53.9024134 C430.8962,63.6036821 423.927961,70.5719209 415.170125,70.5719209 L415.170125,70.5719209 Z M118.573125,10.9630552 L118.573125,76.8804881 L131.569096,76.8804881 L131.569096,52.8675627 L147.5782,52.8675627 C160.477633,52.8675627 170.083096,43.922503 170.083096,31.774891 C170.083096,19.7201597 160.855006,10.9630552 148.048454,10.9630552 L118.573125,10.9630552 Z M146.63623,41.7569955 L131.569096,41.7569955 L131.569096,22.5468015 L146.63623,22.5468015 C152.851185,22.5468015 157.182931,26.5011746 157.182931,32.1515328 C157.182931,37.801891 152.851185,41.7569955 146.63623,41.7569955 L146.63623,41.7569955 Z M188.162633,7.19736866 L176.203707,10.9630552 L176.203707,76.8804881 L188.162633,76.8804881 L188.162633,7.19736866 Z M217.259125,77.5401597 C223.09817,77.5401597 228.371887,75.3739209 232.32626,71.7011149 L232.32626,76.8804881 L244.285185,76.8804881 L244.285185,29.8924134 L232.32626,29.8924134 L232.32626,35.0695925 C228.55911,31.303906 223.379737,29.1383985 217.731573,29.1383985 C205.489618,29.1383985 194.376857,39.3077269 194.376857,53.3385478 C194.376857,67.3686373 205.3002,77.5401597 217.259125,77.5401597 L217.259125,77.5401597 Z M219.331021,66.8047716 C212.081215,66.8047716 206.241439,61.2480254 206.241439,53.3385478 C206.241439,45.4283388 212.081215,39.8723239 219.331021,39.8723239 C226.676633,39.8723239 232.419872,45.4283388 232.419872,53.3385478 C232.419872,61.2480254 226.676633,66.8047716 219.331021,66.8047716 L219.331021,66.8047716 Z M300.032558,29.8924134 L287.507573,29.8924134 L274.134961,57.5766821 L260.481513,29.8924134 L247.111096,29.8924134 L267.262528,70.9471 L253.796304,97.6923239 L266.791543,97.6923239 L300.032558,29.8924134 Z M352.269484,30.3685179 C352.269484,23.3073985 346.99723,18.4110552 338.900528,18.4110552 L322.893618,18.4110552 L322.893618,42.7026224 L338.900528,42.7026224 C346.808543,42.7026224 352.269484,37.5247119 352.269484,30.3685179 L352.269484,30.3685179 Z M338.900528,10.973294 C351.422588,10.973294 360.46126,19.2586821 360.46126,30.3685179 C360.46126,41.572697 351.422588,49.9524284 338.900528,49.9524284 L322.893618,49.9524284 L322.893618,76.8804881 L314.60823,76.8804881 L314.60823,10.973294 L338.900528,10.973294 Z M68.6348119,57.3419209 L64.7952597,51.2125328 L53.5852299,51.2125328 L57.4306328,45.072906 L60.9725284,45.072906 L56.6912448,38.2377716 L44.7498716,57.3419209 L12.8918269,57.3419209 L20.5628866,45.072906 L14.9308119,45.072906 L18.759394,38.9332791 L43.3851851,38.9332791 L39.5536776,45.072906 L27.8090358,45.072906 L23.9694836,51.2125328 L41.344006,51.2125328 L56.6912448,26.6503687 L75.8729164,57.3419209 L68.6348119,57.3419209 Z M26.4326478,26.6503687 L51.6932448,26.6503687 L47.8536925,32.7929209 L22.5960209,32.7929209 L26.4326478,26.6503687 Z M43.9395433,-0.000511940299 C19.6735731,-0.000511940299 -0.000292537313,19.6748164 -0.000292537313,43.9415179 C-0.000292537313,68.2148015 19.6735731,87.8813537 43.9395433,87.8813537 C68.2055134,87.8813537 87.8815731,68.2148015 87.8815731,43.9415179 C87.8815731,19.6748164 68.2055134,-0.000511940299 43.9395433,-0.000511940299 L43.9395433,-0.000511940299 Z"/>
</svg>
